<?xml version="1.0" encoding="UTF-8" standalone="no"?><!-- Generator: Gravit.io --><svg xmlns="http://www.w3.org/2000/svg" xmlns:xlink="http://www.w3.org/1999/xlink" style="isolation:isolate" viewBox="0 0 1178.3 966.8" width="1178.3pt" height="966.8pt"><defs><clipPath id="_clipPath_trd23gCR1Rt8QiIAcMSTb2k8o5RajsrP"><rect width="1178.3" height="966.8"/></clipPath></defs><g clip-path="url(#_clipPath_trd23gCR1Rt8QiIAcMSTb2k8o5RajsrP)"><clipPath id="_clipPath_MGOeaXZNEbUURrH1P4ZwUGLBf4bGZANO"><rect x="0" y="0" width="1178.3" height="966.8" transform="matrix(1,0,0,1,0,0)" fill="rgb(255,255,255)"/></clipPath><g clip-path="url(#_clipPath_MGOeaXZNEbUURrH1P4ZwUGLBf4bGZANO)"><g><path d=" M 933.803 244.662 L 757.058 82.528 L 732.196 109.629 L 879.483 244.662 L 298.935 244.662 L 446.222 109.511 L 421.36 82.41 L 244.615 244.662 L 244.497 244.662 L 244.497 351.534 C 244.497 399.844 291.04 439.199 348.188 439.199 L 504 401 C 561.148 401 560.871 399.844 560.871 351.534 L 560.871 281.425 L 617.429 281.425 L 617.429 351.652 C 617.429 399.962 618.852 401 676 401 L 830.112 439.317 C 887.26 439.317 933.803 399.962 933.803 351.652 L 933.803 244.662 Z " fill="rgb(135,90,123)"/><path d=" M 358.851 344.337 C 358.851 319.896 378.694 300.053 403.135 300.053 C 427.576 300.053 447.419 319.896 447.419 344.337 C 447.419 368.778 427.576 388.621 403.135 388.621 C 378.694 388.621 358.851 368.778 358.851 344.337 Z  M 730.881 343.531 C 730.881 319.09 750.724 299.247 775.165 299.247 C 799.606 299.247 819.449 319.09 819.449 343.531 C 819.449 367.972 799.606 387.815 775.165 387.815 C 750.724 387.815 730.881 367.972 730.881 343.531 Z " fill-rule="evenodd" fill="rgb(255,255,255)"/></g></g><g><path d=" M 361.098 527.332 L 361.098 527.332 L 410.045 527.332 L 410.045 527.332 Q 417.087 527.332 422.108 532.354 L 422.108 532.354 L 422.108 532.354 Q 427.13 537.375 427.13 544.417 L 427.13 544.417 L 427.13 593.364 L 427.13 593.364 Q 427.13 600.406 422.108 605.427 L 422.108 605.427 L 422.108 605.427 Q 417.087 610.449 410.045 610.449 L 410.045 610.449 L 361.098 610.449 L 361.098 610.449 Q 353.941 610.449 348.977 605.485 L 348.977 605.485 L 348.977 605.485 Q 344.013 600.521 344.013 593.364 L 344.013 593.364 L 344.013 544.417 L 344.013 544.417 Q 344.013 537.26 348.977 532.296 L 348.977 532.296 L 348.977 532.296 Q 353.941 527.332 361.098 527.332 Z  M 409.006 545.341 L 361.906 545.341 L 361.906 592.44 L 409.006 592.44 L 409.006 545.341 Z  M 486.351 543.494 L 486.351 521.56 L 504.013 521.56 L 504.013 610.449 L 452.758 610.449 L 452.758 610.449 Q 445.831 610.449 440.925 605.485 L 440.925 605.485 L 440.925 605.485 Q 436.019 600.521 436.019 593.71 L 436.019 593.71 L 436.019 560.232 L 436.019 560.232 Q 436.019 553.421 440.925 548.458 L 440.925 548.458 L 440.925 548.458 Q 445.831 543.494 452.758 543.494 L 452.758 543.494 L 486.351 543.494 Z  M 486.351 561.156 L 453.797 561.156 L 453.797 592.786 L 486.351 592.786 L 486.351 561.156 Z  M 530.333 543.494 L 530.333 543.494 L 564.734 543.494 L 564.734 543.494 Q 571.661 543.494 576.567 548.458 L 576.567 548.458 L 576.567 548.458 Q 581.473 553.421 581.473 560.232 L 581.473 560.232 L 581.473 593.71 L 581.473 593.71 Q 581.473 600.521 576.567 605.485 L 576.567 605.485 L 576.567 605.485 Q 571.661 610.449 564.734 610.449 L 564.734 610.449 L 530.333 610.449 L 530.333 610.449 Q 523.522 610.449 518.558 605.485 L 518.558 605.485 L 518.558 605.485 Q 513.595 600.521 513.595 593.71 L 513.595 593.71 L 513.595 560.232 L 513.595 560.232 Q 513.595 553.421 518.558 548.458 L 518.558 548.458 L 518.558 548.458 Q 523.522 543.494 530.333 543.494 Z  M 563.811 561.156 L 531.257 561.156 L 531.257 592.786 L 563.811 592.786 L 563.811 561.156 Z  M 607.332 543.494 L 607.332 543.494 L 641.733 543.494 L 641.733 543.494 Q 648.659 543.494 653.566 548.458 L 653.566 548.458 L 653.566 548.458 Q 658.472 553.421 658.472 560.232 L 658.472 560.232 L 658.472 593.71 L 658.472 593.71 Q 658.472 600.521 653.566 605.485 L 653.566 605.485 L 653.566 605.485 Q 648.659 610.449 641.733 610.449 L 641.733 610.449 L 607.332 610.449 L 607.332 610.449 Q 600.521 610.449 595.557 605.485 L 595.557 605.485 L 595.557 605.485 Q 590.593 600.521 590.593 593.71 L 590.593 593.71 L 590.593 560.232 L 590.593 560.232 Q 590.593 553.421 595.557 548.458 L 595.557 548.458 L 595.557 548.458 Q 600.521 543.494 607.332 543.494 Z  M 640.809 561.156 L 608.255 561.156 L 608.255 592.786 L 640.809 592.786 L 640.809 561.156 Z  M 670.824 527.332 L 688.717 527.332 L 688.717 592.44 L 735.817 592.44 L 735.817 527.332 L 753.941 527.332 L 753.941 593.364 L 753.941 593.364 Q 753.941 600.406 748.919 605.427 L 748.919 605.427 L 748.919 605.427 Q 743.897 610.449 736.855 610.449 L 736.855 610.449 L 687.909 610.449 L 687.909 610.449 Q 680.752 610.449 675.788 605.485 L 675.788 605.485 L 675.788 605.485 Q 670.824 600.521 670.824 593.364 L 670.824 593.364 L 670.824 527.332 Z  M 766.408 543.494 L 817.548 543.494 L 817.548 543.494 Q 824.474 543.494 829.381 548.458 L 829.381 548.458 L 829.381 548.458 Q 834.287 553.421 834.287 560.232 L 834.287 560.232 L 834.287 593.71 L 834.287 593.71 Q 834.287 600.521 829.381 605.485 L 829.381 605.485 L 829.381 605.485 Q 824.474 610.449 817.548 610.449 L 817.548 610.449 L 784.07 610.449 L 784.07 637 L 766.408 637 L 766.408 543.494 Z  M 816.625 561.156 L 784.07 561.156 L 784.07 592.786 L 816.625 592.786 L 816.625 561.156 Z " fill="rgb(73,67,104)"/></g><path d=" M 635.862 803 L 635.862 768.296 L 645.366 768.296 L 645.366 768.296 Q 651.846 768.296 656.094 770.864 L 656.094 770.864 L 656.094 770.864 Q 660.342 773.432 662.286 777.488 L 662.286 777.488 L 662.286 777.488 Q 664.23 781.544 664.23 786.056 L 664.23 786.056 L 664.23 786.056 Q 664.23 791.096 661.878 794.96 L 661.878 794.96 L 661.878 794.96 Q 659.526 798.824 655.59 800.912 L 655.59 800.912 L 655.59 800.912 Q 651.654 803 647.046 803 L 647.046 803 L 635.862 803 L 635.862 803 Z  M 640.518 798.488 L 646.134 798.488 L 646.134 798.488 Q 649.974 798.488 652.998 796.976 L 652.998 796.976 L 652.998 796.976 Q 656.022 795.464 657.726 792.584 L 657.726 792.584 L 657.726 792.584 Q 659.43 789.704 659.43 785.72 L 659.43 785.72 L 659.43 785.72 Q 659.43 781.64 657.654 778.712 L 657.654 778.712 L 657.654 778.712 Q 655.878 775.784 652.926 774.272 L 652.926 774.272 L 652.926 774.272 Q 649.974 772.76 646.566 772.76 L 646.566 772.76 L 640.518 772.76 L 640.518 798.488 L 640.518 798.488 Z  M 669.222 792.872 L 669.222 792.872 Q 669.222 789.944 670.638 787.52 L 670.638 787.52 L 670.638 787.52 Q 672.054 785.096 674.574 783.704 L 674.574 783.704 L 674.574 783.704 Q 677.094 782.312 680.262 782.312 L 680.262 782.312 L 680.262 782.312 Q 683.43 782.312 685.902 783.704 L 685.902 783.704 L 685.902 783.704 Q 688.374 785.096 689.742 787.496 L 689.742 787.496 L 689.742 787.496 Q 691.11 789.896 691.11 792.872 L 691.11 792.872 L 691.11 792.872 Q 691.11 795.848 689.742 798.272 L 689.742 798.272 L 689.742 798.272 Q 688.374 800.696 685.878 802.088 L 685.878 802.088 L 685.878 802.088 Q 683.382 803.48 680.166 803.48 L 680.166 803.48 L 680.166 803.48 Q 677.046 803.48 674.55 802.16 L 674.55 802.16 L 674.55 802.16 Q 672.054 800.84 670.638 798.44 L 670.638 798.44 L 670.638 798.44 Q 669.222 796.04 669.222 792.872 L 669.222 792.872 L 669.222 792.872 Z  M 673.734 792.92 L 673.734 792.92 Q 673.734 794.792 674.574 796.376 L 674.574 796.376 L 674.574 796.376 Q 675.414 797.96 676.878 798.872 L 676.878 798.872 L 676.878 798.872 Q 678.342 799.784 680.118 799.784 L 680.118 799.784 L 680.118 799.784 Q 682.902 799.784 684.726 797.816 L 684.726 797.816 L 684.726 797.816 Q 686.55 795.848 686.55 792.92 L 686.55 792.92 L 686.55 792.92 Q 686.55 789.992 684.726 788 L 684.726 788 L 684.726 788 Q 682.902 786.008 680.118 786.008 L 680.118 786.008 L 680.118 786.008 Q 678.294 786.008 676.854 786.944 L 676.854 786.944 L 676.854 786.944 Q 675.414 787.88 674.574 789.464 L 674.574 789.464 L 674.574 789.464 Q 673.734 791.048 673.734 792.92 L 673.734 792.92 L 673.734 792.92 Z  M 713.238 801.128 L 713.238 801.128 Q 711.894 802.232 710.046 802.856 L 710.046 802.856 L 710.046 802.856 Q 708.198 803.48 706.278 803.48 L 706.278 803.48 L 706.278 803.48 Q 703.062 803.48 700.59 802.184 L 700.59 802.184 L 700.59 802.184 Q 698.118 800.888 696.75 798.512 L 696.75 798.512 L 696.75 798.512 Q 695.382 796.136 695.382 793.016 L 695.382 793.016 L 695.382 793.016 Q 695.382 789.944 696.822 787.568 L 696.822 787.568 L 696.822 787.568 Q 698.262 785.192 700.662 783.896 L 700.662 783.896 L 700.662 783.896 Q 703.062 782.6 705.846 782.6 L 705.846 782.6 L 705.846 782.6 Q 710.406 782.6 713.382 785.096 L 713.382 785.096 L 711.126 788.024 L 711.126 788.024 Q 710.166 787.304 708.918 786.8 L 708.918 786.8 L 708.918 786.8 Q 707.67 786.296 706.23 786.296 L 706.23 786.296 L 706.23 786.296 Q 704.454 786.296 702.99 787.184 L 702.99 787.184 L 702.99 787.184 Q 701.526 788.072 700.686 789.608 L 700.686 789.608 L 700.686 789.608 Q 699.846 791.144 699.846 793.016 L 699.846 793.016 L 699.846 793.016 Q 699.846 794.888 700.734 796.424 L 700.734 796.424 L 700.734 796.424 Q 701.622 797.96 703.158 798.872 L 703.158 798.872 L 703.158 798.872 Q 704.694 799.784 706.662 799.784 L 706.662 799.784 L 706.662 799.784 Q 709.11 799.784 710.934 798.344 L 710.934 798.344 L 713.238 801.128 L 713.238 801.128 Z  M 732.198 803 L 726.054 793.448 L 723.462 795.56 L 723.462 803 L 718.998 803 L 718.998 765.8 L 723.462 765.8 L 723.462 790.904 L 733.734 782.648 L 736.47 785.048 L 729.126 790.952 L 737.43 803 L 732.198 803 L 732.198 803 Z  M 751.494 799.64 L 751.494 799.64 Q 753.99 799.64 756.342 797.912 L 756.342 797.912 L 758.406 801.224 L 758.406 801.224 Q 756.822 802.28 754.974 802.88 L 754.974 802.88 L 754.974 802.88 Q 753.126 803.48 751.398 803.48 L 751.398 803.48 L 751.398 803.48 Q 748.086 803.48 745.614 802.112 L 745.614 802.112 L 745.614 802.112 Q 743.142 800.744 741.798 798.344 L 741.798 798.344 L 741.798 798.344 Q 740.454 795.944 740.454 792.92 L 740.454 792.92 L 740.454 792.92 Q 740.454 789.992 741.918 787.568 L 741.918 787.568 L 741.918 787.568 Q 743.382 785.144 745.926 783.728 L 745.926 783.728 L 745.926 783.728 Q 748.47 782.312 751.494 782.312 L 751.494 782.312 L 751.494 782.312 Q 755.382 782.312 757.998 784.592 L 757.998 784.592 L 757.998 784.592 Q 760.614 786.872 761.574 790.952 L 761.574 790.952 L 745.83 796.472 L 745.83 796.472 Q 746.694 797.96 748.158 798.8 L 748.158 798.8 L 748.158 798.8 Q 749.622 799.64 751.494 799.64 L 751.494 799.64 L 751.494 799.64 Z  M 751.158 785.864 L 751.158 785.864 Q 748.422 785.864 746.646 787.784 L 746.646 787.784 L 746.646 787.784 Q 744.87 789.704 744.87 792.68 L 744.87 792.68 L 744.87 792.68 Q 744.87 793.4 744.918 793.784 L 744.918 793.784 L 756.486 789.512 L 756.486 789.512 Q 755.766 787.88 754.446 786.872 L 754.446 786.872 L 754.446 786.872 Q 753.126 785.864 751.158 785.864 L 751.158 785.864 L 751.158 785.864 Z  M 771.462 787.832 L 771.462 787.832 Q 772.23 786.2 773.646 784.952 L 773.646 784.952 L 773.646 784.952 Q 775.062 783.704 776.646 783.032 L 776.646 783.032 L 776.646 783.032 Q 778.23 782.36 779.43 782.312 L 779.43 782.312 L 779.238 786.776 L 779.238 786.776 Q 777.078 786.68 775.326 787.64 L 775.326 787.64 L 775.326 787.64 Q 773.574 788.6 772.59 790.304 L 772.59 790.304 L 772.59 790.304 Q 771.606 792.008 771.606 793.928 L 771.606 793.928 L 771.606 803 L 767.142 803 L 767.142 783.128 L 771.126 783.128 L 771.462 787.832 L 771.462 787.832 Z  M 780.822 800.456 L 780.822 800.456 Q 780.822 799.4 781.59 798.632 L 781.59 798.632 L 781.59 798.632 Q 782.358 797.864 783.366 797.864 L 783.366 797.864 L 783.366 797.864 Q 784.278 797.864 785.07 798.632 L 785.07 798.632 L 785.07 798.632 Q 785.862 799.4 785.862 800.456 L 785.862 800.456 L 785.862 800.456 Q 785.862 801.56 785.094 802.28 L 785.094 802.28 L 785.094 802.28 Q 784.326 803 783.366 803 L 783.366 803 L 783.366 803 Q 782.358 803 781.59 802.28 L 781.59 802.28 L 781.59 802.28 Q 780.822 801.56 780.822 800.456 L 780.822 800.456 L 780.822 800.456 Z  M 392.886 765.8 L 397.35 765.8 L 397.35 803 L 392.886 803 L 392.886 765.8 L 392.886 765.8 Z  M 414.438 799.64 L 414.438 799.64 Q 416.934 799.64 419.286 797.912 L 419.286 797.912 L 421.35 801.224 L 421.35 801.224 Q 419.766 802.28 417.918 802.88 L 417.918 802.88 L 417.918 802.88 Q 416.07 803.48 414.342 803.48 L 414.342 803.48 L 414.342 803.48 Q 411.03 803.48 408.558 802.112 L 408.558 802.112 L 408.558 802.112 Q 406.086 800.744 404.742 798.344 L 404.742 798.344 L 404.742 798.344 Q 403.398 795.944 403.398 792.92 L 403.398 792.92 L 403.398 792.92 Q 403.398 789.992 404.862 787.568 L 404.862 787.568 L 404.862 787.568 Q 406.326 785.144 408.87 783.728 L 408.87 783.728 L 408.87 783.728 Q 411.414 782.312 414.438 782.312 L 414.438 782.312 L 414.438 782.312 Q 418.326 782.312 420.942 784.592 L 420.942 784.592 L 420.942 784.592 Q 423.558 786.872 424.518 790.952 L 424.518 790.952 L 408.774 796.472 L 408.774 796.472 Q 409.638 797.96 411.102 798.8 L 411.102 798.8 L 411.102 798.8 Q 412.566 799.64 414.438 799.64 L 414.438 799.64 L 414.438 799.64 Z  M 414.102 785.864 L 414.102 785.864 Q 411.366 785.864 409.59 787.784 L 409.59 787.784 L 409.59 787.784 Q 407.814 789.704 407.814 792.68 L 407.814 792.68 L 407.814 792.68 Q 407.814 793.4 407.862 793.784 L 407.862 793.784 L 419.43 789.512 L 419.43 789.512 Q 418.71 787.88 417.39 786.872 L 417.39 786.872 L 417.39 786.872 Q 416.07 785.864 414.102 785.864 L 414.102 785.864 L 414.102 785.864 Z  M 443.286 783.128 L 448.278 783.128 L 437.67 803.576 L 437.43 803.576 L 426.39 783.128 L 431.718 783.128 L 437.718 795.8 L 443.286 783.128 L 443.286 783.128 Z  M 461.91 799.64 L 461.91 799.64 Q 464.406 799.64 466.758 797.912 L 466.758 797.912 L 468.822 801.224 L 468.822 801.224 Q 467.238 802.28 465.39 802.88 L 465.39 802.88 L 465.39 802.88 Q 463.542 803.48 461.814 803.48 L 461.814 803.48 L 461.814 803.48 Q 458.502 803.48 456.03 802.112 L 456.03 802.112 L 456.03 802.112 Q 453.558 800.744 452.214 798.344 L 452.214 798.344 L 452.214 798.344 Q 450.87 795.944 450.87 792.92 L 450.87 792.92 L 450.87 792.92 Q 450.87 789.992 452.334 787.568 L 452.334 787.568 L 452.334 787.568 Q 453.798 785.144 456.342 783.728 L 456.342 783.728 L 456.342 783.728 Q 458.886 782.312 461.91 782.312 L 461.91 782.312 L 461.91 782.312 Q 465.798 782.312 468.414 784.592 L 468.414 784.592 L 468.414 784.592 Q 471.03 786.872 471.99 790.952 L 471.99 790.952 L 456.246 796.472 L 456.246 796.472 Q 457.11 797.96 458.574 798.8 L 458.574 798.8 L 458.574 798.8 Q 460.038 799.64 461.91 799.64 L 461.91 799.64 L 461.91 799.64 Z  M 461.574 785.864 L 461.574 785.864 Q 458.838 785.864 457.062 787.784 L 457.062 787.784 L 457.062 787.784 Q 455.286 789.704 455.286 792.68 L 455.286 792.68 L 455.286 792.68 Q 455.286 793.4 455.334 793.784 L 455.334 793.784 L 466.902 789.512 L 466.902 789.512 Q 466.182 787.88 464.862 786.872 L 464.862 786.872 L 464.862 786.872 Q 463.542 785.864 461.574 785.864 L 461.574 785.864 L 461.574 785.864 Z  M 481.878 787.832 L 481.878 787.832 Q 482.646 786.2 484.062 784.952 L 484.062 784.952 L 484.062 784.952 Q 485.478 783.704 487.062 783.032 L 487.062 783.032 L 487.062 783.032 Q 488.646 782.36 489.846 782.312 L 489.846 782.312 L 489.654 786.776 L 489.654 786.776 Q 487.494 786.68 485.742 787.64 L 485.742 787.64 L 485.742 787.64 Q 483.99 788.6 483.006 790.304 L 483.006 790.304 L 483.006 790.304 Q 482.022 792.008 482.022 793.928 L 482.022 793.928 L 482.022 803 L 477.558 803 L 477.558 783.128 L 481.542 783.128 L 481.878 787.832 L 481.878 787.832 Z  M 511.398 783.128 L 515.526 783.128 L 515.526 803 L 511.062 803 L 511.062 799.736 L 511.062 799.736 Q 510.006 801.128 507.99 802.304 L 507.99 802.304 L 507.99 802.304 Q 505.974 803.48 503.43 803.48 L 503.43 803.48 L 503.43 803.48 Q 500.598 803.48 498.318 802.256 L 498.318 802.256 L 498.318 802.256 Q 496.038 801.032 494.718 798.68 L 494.718 798.68 L 494.718 798.68 Q 493.398 796.328 493.398 793.064 L 493.398 793.064 L 493.398 793.064 Q 493.398 789.8 494.766 787.376 L 494.766 787.376 L 494.766 787.376 Q 496.134 784.952 498.462 783.632 L 498.462 783.632 L 498.462 783.632 Q 500.79 782.312 503.622 782.312 L 503.622 782.312 L 503.622 782.312 Q 506.166 782.312 508.038 783.416 L 508.038 783.416 L 508.038 783.416 Q 509.91 784.52 511.062 786.296 L 511.062 786.296 L 511.398 783.128 L 511.398 783.128 Z  M 504.63 799.784 L 504.63 799.784 Q 507.078 799.784 508.83 798.416 L 508.83 798.416 L 508.83 798.416 Q 510.582 797.048 511.062 794.696 L 511.062 794.696 L 511.062 790.76 L 511.062 790.76 Q 510.486 788.648 508.662 787.328 L 508.662 787.328 L 508.662 787.328 Q 506.838 786.008 504.486 786.008 L 504.486 786.008 L 504.486 786.008 Q 502.71 786.008 501.198 786.872 L 501.198 786.872 L 501.198 786.872 Q 499.686 787.736 498.798 789.296 L 498.798 789.296 L 498.798 789.296 Q 497.91 790.856 497.91 792.824 L 497.91 792.824 L 497.91 792.824 Q 497.91 794.744 498.822 796.328 L 498.822 796.328 L 498.822 796.328 Q 499.734 797.912 501.27 798.848 L 501.27 798.848 L 501.27 798.848 Q 502.806 799.784 504.63 799.784 L 504.63 799.784 L 504.63 799.784 Z  M 540.198 783.128 L 544.278 783.128 L 544.278 803.144 L 544.278 803.144 Q 544.278 805.88 542.886 808.088 L 542.886 808.088 L 542.886 808.088 Q 541.494 810.296 538.926 811.592 L 538.926 811.592 L 538.926 811.592 Q 536.358 812.888 532.902 812.888 L 532.902 812.888 L 532.902 812.888 Q 529.878 812.888 527.694 811.88 L 527.694 811.88 L 527.694 811.88 Q 525.51 810.872 523.302 808.904 L 523.302 808.904 L 525.942 805.832 L 525.942 805.832 Q 527.574 807.368 529.206 808.16 L 529.206 808.16 L 529.206 808.16 Q 530.838 808.952 532.806 808.952 L 532.806 808.952 L 532.806 808.952 Q 536.118 808.952 537.918 807.368 L 537.918 807.368 L 537.918 807.368 Q 539.718 805.784 539.766 803.096 L 539.766 803.096 L 539.814 799.352 L 539.814 799.352 Q 538.71 801.224 536.574 802.352 L 536.574 802.352 L 536.574 802.352 Q 534.438 803.48 531.654 803.48 L 531.654 803.48 L 531.654 803.48 Q 528.918 803.48 526.614 802.088 L 526.614 802.088 L 526.614 802.088 Q 524.31 800.696 522.942 798.296 L 522.942 798.296 L 522.942 798.296 Q 521.574 795.896 521.574 792.968 L 521.574 792.968 L 521.574 792.968 Q 521.574 789.944 522.99 787.52 L 522.99 787.52 L 522.99 787.52 Q 524.406 785.096 526.806 783.704 L 526.806 783.704 L 526.806 783.704 Q 529.206 782.312 531.942 782.312 L 531.942 782.312 L 531.942 782.312 Q 534.486 782.312 536.646 783.32 L 536.646 783.32 L 536.646 783.32 Q 538.806 784.328 539.862 785.912 L 539.862 785.912 L 540.198 783.128 L 540.198 783.128 Z  M 532.95 799.784 L 532.95 799.784 Q 535.494 799.784 537.366 798.392 L 537.366 798.392 L 537.366 798.392 Q 539.238 797 539.814 794.744 L 539.814 794.744 L 539.814 790.808 L 539.814 790.808 Q 539.142 788.648 537.27 787.328 L 537.27 787.328 L 537.27 787.328 Q 535.398 786.008 532.95 786.008 L 532.95 786.008 L 532.95 786.008 Q 530.022 786.008 528.054 787.928 L 528.054 787.928 L 528.054 787.928 Q 526.086 789.848 526.086 792.824 L 526.086 792.824 L 526.086 792.824 Q 526.086 794.744 526.998 796.328 L 526.998 796.328 L 526.998 796.328 Q 527.91 797.912 529.494 798.848 L 529.494 798.848 L 529.494 798.848 Q 531.078 799.784 532.95 799.784 L 532.95 799.784 L 532.95 799.784 Z  M 552.054 783.128 L 556.518 783.128 L 556.518 803 L 552.054 803 L 552.054 783.128 L 552.054 783.128 Z  M 551.718 775.976 L 551.718 775.976 Q 551.718 774.92 552.534 774.2 L 552.534 774.2 L 552.534 774.2 Q 553.35 773.48 554.406 773.48 L 554.406 773.48 L 554.406 773.48 Q 555.462 773.48 556.254 774.2 L 556.254 774.2 L 556.254 774.2 Q 557.046 774.92 557.046 775.976 L 557.046 775.976 L 557.046 775.976 Q 557.046 777.032 556.254 777.752 L 556.254 777.752 L 556.254 777.752 Q 555.462 778.472 554.406 778.472 L 554.406 778.472 L 554.406 778.472 Q 553.35 778.472 552.534 777.752 L 552.534 777.752 L 552.534 777.752 Q 551.718 777.032 551.718 775.976 L 551.718 775.976 L 551.718 775.976 Z  M 576.63 782.36 L 576.63 782.36 Q 579.414 782.36 581.238 784.016 L 581.238 784.016 L 581.238 784.016 Q 583.062 785.672 583.11 788.312 L 583.11 788.312 L 583.11 803 L 578.598 803 L 578.598 789.848 L 578.598 789.848 Q 578.502 788.168 577.59 787.208 L 577.59 787.208 L 577.59 787.208 Q 576.678 786.248 574.854 786.2 L 574.854 786.2 L 574.854 786.2 Q 572.214 786.2 570.486 788.312 L 570.486 788.312 L 570.486 788.312 Q 568.758 790.424 568.758 793.688 L 568.758 793.688 L 568.758 803 L 564.294 803 L 564.294 783.128 L 568.326 783.128 L 568.614 786.968 L 568.614 786.968 Q 569.67 784.808 571.782 783.584 L 571.782 783.584 L 571.782 783.584 Q 573.894 782.36 576.63 782.36 L 576.63 782.36 L 576.63 782.36 Z  M 607.734 783.128 L 611.814 783.128 L 611.814 803.144 L 611.814 803.144 Q 611.814 805.88 610.422 808.088 L 610.422 808.088 L 610.422 808.088 Q 609.03 810.296 606.462 811.592 L 606.462 811.592 L 606.462 811.592 Q 603.894 812.888 600.438 812.888 L 600.438 812.888 L 600.438 812.888 Q 597.414 812.888 595.23 811.88 L 595.23 811.88 L 595.23 811.88 Q 593.046 810.872 590.838 808.904 L 590.838 808.904 L 593.478 805.832 L 593.478 805.832 Q 595.11 807.368 596.742 808.16 L 596.742 808.16 L 596.742 808.16 Q 598.374 808.952 600.342 808.952 L 600.342 808.952 L 600.342 808.952 Q 603.654 808.952 605.454 807.368 L 605.454 807.368 L 605.454 807.368 Q 607.254 805.784 607.302 803.096 L 607.302 803.096 L 607.35 799.352 L 607.35 799.352 Q 606.246 801.224 604.11 802.352 L 604.11 802.352 L 604.11 802.352 Q 601.974 803.48 599.19 803.48 L 599.19 803.48 L 599.19 803.48 Q 596.454 803.48 594.15 802.088 L 594.15 802.088 L 594.15 802.088 Q 591.846 800.696 590.478 798.296 L 590.478 798.296 L 590.478 798.296 Q 589.11 795.896 589.11 792.968 L 589.11 792.968 L 589.11 792.968 Q 589.11 789.944 590.526 787.52 L 590.526 787.52 L 590.526 787.52 Q 591.942 785.096 594.342 783.704 L 594.342 783.704 L 594.342 783.704 Q 596.742 782.312 599.478 782.312 L 599.478 782.312 L 599.478 782.312 Q 602.022 782.312 604.182 783.32 L 604.182 783.32 L 604.182 783.32 Q 606.342 784.328 607.398 785.912 L 607.398 785.912 L 607.734 783.128 L 607.734 783.128 Z  M 600.486 799.784 L 600.486 799.784 Q 603.03 799.784 604.902 798.392 L 604.902 798.392 L 604.902 798.392 Q 606.774 797 607.35 794.744 L 607.35 794.744 L 607.35 790.808 L 607.35 790.808 Q 606.678 788.648 604.806 787.328 L 604.806 787.328 L 604.806 787.328 Q 602.934 786.008 600.486 786.008 L 600.486 786.008 L 600.486 786.008 Q 597.558 786.008 595.59 787.928 L 595.59 787.928 L 595.59 787.928 Q 593.622 789.848 593.622 792.824 L 593.622 792.824 L 593.622 792.824 Q 593.622 794.744 594.534 796.328 L 594.534 796.328 L 594.534 796.328 Q 595.446 797.912 597.03 798.848 L 597.03 798.848 L 597.03 798.848 Q 598.614 799.784 600.486 799.784 L 600.486 799.784 L 600.486 799.784 Z  M 816.35 717.8 L 820.814 717.8 L 820.814 755 L 816.302 755 L 816.302 751.88 L 816.302 751.88 Q 814.862 753.56 812.774 754.52 L 812.774 754.52 L 812.774 754.52 Q 810.686 755.48 808.19 755.48 L 808.19 755.48 L 808.19 755.48 Q 805.406 755.48 803.15 754.136 L 803.15 754.136 L 803.15 754.136 Q 800.894 752.792 799.622 750.368 L 799.622 750.368 L 799.622 750.368 Q 798.35 747.944 798.35 744.776 L 798.35 744.776 L 798.35 744.776 Q 798.35 741.56 799.694 739.184 L 799.694 739.184 L 799.694 739.184 Q 801.038 736.808 803.39 735.56 L 803.39 735.56 L 803.39 735.56 Q 805.742 734.312 808.718 734.312 L 808.718 734.312 L 808.718 734.312 Q 810.974 734.312 813.062 735.248 L 813.062 735.248 L 813.062 735.248 Q 815.15 736.184 816.35 737.816 L 816.35 737.816 L 816.35 717.8 L 816.35 717.8 Z  M 809.582 751.64 L 809.582 751.64 Q 812.174 751.64 813.974 750.248 L 813.974 750.248 L 813.974 750.248 Q 815.774 748.856 816.302 746.504 L 816.302 746.504 L 816.302 742.76 L 816.302 742.76 Q 815.726 740.6 813.854 739.232 L 813.854 739.232 L 813.854 739.232 Q 811.982 737.864 809.582 737.864 L 809.582 737.864 L 809.582 737.864 Q 807.758 737.864 806.222 738.752 L 806.222 738.752 L 806.222 738.752 Q 804.686 739.64 803.774 741.2 L 803.774 741.2 L 803.774 741.2 Q 802.862 742.76 802.862 744.728 L 802.862 744.728 L 802.862 744.728 Q 802.862 746.648 803.774 748.232 L 803.774 748.232 L 803.774 748.232 Q 804.686 749.816 806.222 750.728 L 806.222 750.728 L 806.222 750.728 Q 807.758 751.64 809.582 751.64 L 809.582 751.64 L 809.582 751.64 Z  M 832.862 739.832 L 832.862 739.832 Q 833.63 738.2 835.046 736.952 L 835.046 736.952 L 835.046 736.952 Q 836.462 735.704 838.046 735.032 L 838.046 735.032 L 838.046 735.032 Q 839.63 734.36 840.83 734.312 L 840.83 734.312 L 840.638 738.776 L 840.638 738.776 Q 838.478 738.68 836.726 739.64 L 836.726 739.64 L 836.726 739.64 Q 834.974 740.6 833.99 742.304 L 833.99 742.304 L 833.99 742.304 Q 833.006 744.008 833.006 745.928 L 833.006 745.928 L 833.006 755 L 828.542 755 L 828.542 735.128 L 832.526 735.128 L 832.862 739.832 L 832.862 739.832 Z  M 846.59 735.128 L 851.054 735.128 L 851.054 755 L 846.59 755 L 846.59 735.128 L 846.59 735.128 Z  M 846.254 727.976 L 846.254 727.976 Q 846.254 726.92 847.07 726.2 L 847.07 726.2 L 847.07 726.2 Q 847.886 725.48 848.942 725.48 L 848.942 725.48 L 848.942 725.48 Q 849.998 725.48 850.79 726.2 L 850.79 726.2 L 850.79 726.2 Q 851.582 726.92 851.582 727.976 L 851.582 727.976 L 851.582 727.976 Q 851.582 729.032 850.79 729.752 L 850.79 729.752 L 850.79 729.752 Q 849.998 730.472 848.942 730.472 L 848.942 730.472 L 848.942 730.472 Q 847.886 730.472 847.07 729.752 L 847.07 729.752 L 847.07 729.752 Q 846.254 729.032 846.254 727.976 L 846.254 727.976 L 846.254 727.976 Z  M 872.75 735.128 L 877.742 735.128 L 867.134 755.576 L 866.894 755.576 L 855.854 735.128 L 861.182 735.128 L 867.182 747.8 L 872.75 735.128 L 872.75 735.128 Z  M 891.374 751.64 L 891.374 751.64 Q 893.87 751.64 896.222 749.912 L 896.222 749.912 L 898.286 753.224 L 898.286 753.224 Q 896.702 754.28 894.854 754.88 L 894.854 754.88 L 894.854 754.88 Q 893.006 755.48 891.278 755.48 L 891.278 755.48 L 891.278 755.48 Q 887.966 755.48 885.494 754.112 L 885.494 754.112 L 885.494 754.112 Q 883.022 752.744 881.678 750.344 L 881.678 750.344 L 881.678 750.344 Q 880.334 747.944 880.334 744.92 L 880.334 744.92 L 880.334 744.92 Q 880.334 741.992 881.798 739.568 L 881.798 739.568 L 881.798 739.568 Q 883.262 737.144 885.806 735.728 L 885.806 735.728 L 885.806 735.728 Q 888.35 734.312 891.374 734.312 L 891.374 734.312 L 891.374 734.312 Q 895.262 734.312 897.878 736.592 L 897.878 736.592 L 897.878 736.592 Q 900.494 738.872 901.454 742.952 L 901.454 742.952 L 885.71 748.472 L 885.71 748.472 Q 886.574 749.96 888.038 750.8 L 888.038 750.8 L 888.038 750.8 Q 889.502 751.64 891.374 751.64 L 891.374 751.64 L 891.374 751.64 Z  M 891.038 737.864 L 891.038 737.864 Q 888.302 737.864 886.526 739.784 L 886.526 739.784 L 886.526 739.784 Q 884.75 741.704 884.75 744.68 L 884.75 744.68 L 884.75 744.68 Q 884.75 745.4 884.798 745.784 L 884.798 745.784 L 896.366 741.512 L 896.366 741.512 Q 895.646 739.88 894.326 738.872 L 894.326 738.872 L 894.326 738.872 Q 893.006 737.864 891.038 737.864 L 891.038 737.864 L 891.038 737.864 Z  M 911.342 739.832 L 911.342 739.832 Q 912.11 738.2 913.526 736.952 L 913.526 736.952 L 913.526 736.952 Q 914.942 735.704 916.526 735.032 L 916.526 735.032 L 916.526 735.032 Q 918.11 734.36 919.31 734.312 L 919.31 734.312 L 919.118 738.776 L 919.118 738.776 Q 916.958 738.68 915.206 739.64 L 915.206 739.64 L 915.206 739.64 Q 913.454 740.6 912.47 742.304 L 912.47 742.304 L 912.47 742.304 Q 911.486 744.008 911.486 745.928 L 911.486 745.928 L 911.486 755 L 907.022 755 L 907.022 735.128 L 911.006 735.128 L 911.342 739.832 L 911.342 739.832 Z  M 929.15 750.776 L 926.366 757.496 L 924.974 760.856 L 921.326 760.856 L 922.574 757.496 L 922.574 757.496 Q 924.734 751.688 925.07 750.776 L 925.07 750.776 L 929.15 750.776 L 929.15 750.776 Z  M 649.07 734.312 L 649.07 734.312 Q 651.854 734.312 654.11 735.656 L 654.11 735.656 L 654.11 735.656 Q 656.366 737 657.662 739.424 L 657.662 739.424 L 657.662 739.424 Q 658.958 741.848 658.958 745.016 L 658.958 745.016 L 658.958 745.016 Q 658.958 748.136 657.566 750.512 L 657.566 750.512 L 657.566 750.512 Q 656.174 752.888 653.726 754.184 L 653.726 754.184 L 653.726 754.184 Q 651.278 755.48 648.254 755.48 L 648.254 755.48 L 648.254 755.48 Q 646.094 755.48 644.126 754.544 L 644.126 754.544 L 644.126 754.544 Q 642.158 753.608 640.958 752.024 L 640.958 752.024 L 640.958 764.552 L 636.494 764.552 L 636.494 734.792 L 640.382 734.792 L 640.766 738.152 L 640.766 738.152 Q 642.302 736.424 644.438 735.368 L 644.438 735.368 L 644.438 735.368 Q 646.574 734.312 649.07 734.312 L 649.07 734.312 L 649.07 734.312 Z  M 647.39 751.88 L 647.39 751.88 Q 649.262 751.88 650.87 750.992 L 650.87 750.992 L 650.87 750.992 Q 652.478 750.104 653.438 748.544 L 653.438 748.544 L 653.438 748.544 Q 654.398 746.984 654.398 745.064 L 654.398 745.064 L 654.398 745.064 Q 654.398 743.096 653.51 741.512 L 653.51 741.512 L 653.51 741.512 Q 652.622 739.928 651.086 739.016 L 651.086 739.016 L 651.086 739.016 Q 649.55 738.104 647.678 738.104 L 647.678 738.104 L 647.678 738.104 Q 645.134 738.104 643.334 739.52 L 643.334 739.52 L 643.334 739.52 Q 641.534 740.936 640.958 743.336 L 640.958 743.336 L 640.958 746.648 L 640.958 746.648 Q 641.342 748.952 643.142 750.416 L 643.142 750.416 L 643.142 750.416 Q 644.942 751.88 647.39 751.88 L 647.39 751.88 L 647.39 751.88 Z  M 669.278 739.832 L 669.278 739.832 Q 670.046 738.2 671.462 736.952 L 671.462 736.952 L 671.462 736.952 Q 672.878 735.704 674.462 735.032 L 674.462 735.032 L 674.462 735.032 Q 676.046 734.36 677.246 734.312 L 677.246 734.312 L 677.054 738.776 L 677.054 738.776 Q 674.894 738.68 673.142 739.64 L 673.142 739.64 L 673.142 739.64 Q 671.39 740.6 670.406 742.304 L 670.406 742.304 L 670.406 742.304 Q 669.422 744.008 669.422 745.928 L 669.422 745.928 L 669.422 755 L 664.958 755 L 664.958 735.128 L 668.942 735.128 L 669.278 739.832 L 669.278 739.832 Z  M 680.414 744.872 L 680.414 744.872 Q 680.414 741.944 681.83 739.52 L 681.83 739.52 L 681.83 739.52 Q 683.246 737.096 685.766 735.704 L 685.766 735.704 L 685.766 735.704 Q 688.286 734.312 691.454 734.312 L 691.454 734.312 L 691.454 734.312 Q 694.622 734.312 697.094 735.704 L 697.094 735.704 L 697.094 735.704 Q 699.566 737.096 700.934 739.496 L 700.934 739.496 L 700.934 739.496 Q 702.302 741.896 702.302 744.872 L 702.302 744.872 L 702.302 744.872 Q 702.302 747.848 700.934 750.272 L 700.934 750.272 L 700.934 750.272 Q 699.566 752.696 697.07 754.088 L 697.07 754.088 L 697.07 754.088 Q 694.574 755.48 691.358 755.48 L 691.358 755.48 L 691.358 755.48 Q 688.238 755.48 685.742 754.16 L 685.742 754.16 L 685.742 754.16 Q 683.246 752.84 681.83 750.44 L 681.83 750.44 L 681.83 750.44 Q 680.414 748.04 680.414 744.872 L 680.414 744.872 L 680.414 744.872 Z  M 684.926 744.92 L 684.926 744.92 Q 684.926 746.792 685.766 748.376 L 685.766 748.376 L 685.766 748.376 Q 686.606 749.96 688.07 750.872 L 688.07 750.872 L 688.07 750.872 Q 689.534 751.784 691.31 751.784 L 691.31 751.784 L 691.31 751.784 Q 694.094 751.784 695.918 749.816 L 695.918 749.816 L 695.918 749.816 Q 697.742 747.848 697.742 744.92 L 697.742 744.92 L 697.742 744.92 Q 697.742 741.992 695.918 740 L 695.918 740 L 695.918 740 Q 694.094 738.008 691.31 738.008 L 691.31 738.008 L 691.31 738.008 Q 689.486 738.008 688.046 738.944 L 688.046 738.944 L 688.046 738.944 Q 686.606 739.88 685.766 741.464 L 685.766 741.464 L 685.766 741.464 Q 684.926 743.048 684.926 744.92 L 684.926 744.92 L 684.926 744.92 Z  M 708.59 764.6 L 705.902 761.816 L 705.902 761.816 Q 708.782 759.368 708.782 754.952 L 708.782 754.952 L 708.782 735.128 L 713.294 735.128 L 713.294 755.144 L 713.294 755.144 Q 713.294 758.552 712.166 760.856 L 712.166 760.856 L 712.166 760.856 Q 711.038 763.16 708.59 764.6 L 708.59 764.6 L 708.59 764.6 Z  M 708.446 727.976 L 708.446 727.976 Q 708.446 726.92 709.262 726.2 L 709.262 726.2 L 709.262 726.2 Q 710.078 725.48 711.134 725.48 L 711.134 725.48 L 711.134 725.48 Q 712.19 725.48 712.982 726.2 L 712.982 726.2 L 712.982 726.2 Q 713.774 726.92 713.774 727.976 L 713.774 727.976 L 713.774 727.976 Q 713.774 729.032 712.982 729.752 L 712.982 729.752 L 712.982 729.752 Q 712.19 730.472 711.134 730.472 L 711.134 730.472 L 711.134 730.472 Q 710.078 730.472 709.262 729.752 L 709.262 729.752 L 709.262 729.752 Q 708.446 729.032 708.446 727.976 L 708.446 727.976 L 708.446 727.976 Z  M 730.094 751.64 L 730.094 751.64 Q 732.59 751.64 734.942 749.912 L 734.942 749.912 L 737.006 753.224 L 737.006 753.224 Q 735.422 754.28 733.574 754.88 L 733.574 754.88 L 733.574 754.88 Q 731.726 755.48 729.998 755.48 L 729.998 755.48 L 729.998 755.48 Q 726.686 755.48 724.214 754.112 L 724.214 754.112 L 724.214 754.112 Q 721.742 752.744 720.398 750.344 L 720.398 750.344 L 720.398 750.344 Q 719.054 747.944 719.054 744.92 L 719.054 744.92 L 719.054 744.92 Q 719.054 741.992 720.518 739.568 L 720.518 739.568 L 720.518 739.568 Q 721.982 737.144 724.526 735.728 L 724.526 735.728 L 724.526 735.728 Q 727.07 734.312 730.094 734.312 L 730.094 734.312 L 730.094 734.312 Q 733.982 734.312 736.598 736.592 L 736.598 736.592 L 736.598 736.592 Q 739.214 738.872 740.174 742.952 L 740.174 742.952 L 724.43 748.472 L 724.43 748.472 Q 725.294 749.96 726.758 750.8 L 726.758 750.8 L 726.758 750.8 Q 728.222 751.64 730.094 751.64 L 730.094 751.64 L 730.094 751.64 Z  M 729.758 737.864 L 729.758 737.864 Q 727.022 737.864 725.246 739.784 L 725.246 739.784 L 725.246 739.784 Q 723.47 741.704 723.47 744.68 L 723.47 744.68 L 723.47 744.68 Q 723.47 745.4 723.518 745.784 L 723.518 745.784 L 735.086 741.512 L 735.086 741.512 Q 734.366 739.88 733.046 738.872 L 733.046 738.872 L 733.046 738.872 Q 731.726 737.864 729.758 737.864 L 729.758 737.864 L 729.758 737.864 Z  M 761.87 753.128 L 761.87 753.128 Q 760.526 754.232 758.678 754.856 L 758.678 754.856 L 758.678 754.856 Q 756.83 755.48 754.91 755.48 L 754.91 755.48 L 754.91 755.48 Q 751.694 755.48 749.222 754.184 L 749.222 754.184 L 749.222 754.184 Q 746.75 752.888 745.382 750.512 L 745.382 750.512 L 745.382 750.512 Q 744.014 748.136 744.014 745.016 L 744.014 745.016 L 744.014 745.016 Q 744.014 741.944 745.454 739.568 L 745.454 739.568 L 745.454 739.568 Q 746.894 737.192 749.294 735.896 L 749.294 735.896 L 749.294 735.896 Q 751.694 734.6 754.478 734.6 L 754.478 734.6 L 754.478 734.6 Q 759.038 734.6 762.014 737.096 L 762.014 737.096 L 759.758 740.024 L 759.758 740.024 Q 758.798 739.304 757.55 738.8 L 757.55 738.8 L 757.55 738.8 Q 756.302 738.296 754.862 738.296 L 754.862 738.296 L 754.862 738.296 Q 753.086 738.296 751.622 739.184 L 751.622 739.184 L 751.622 739.184 Q 750.158 740.072 749.318 741.608 L 749.318 741.608 L 749.318 741.608 Q 748.478 743.144 748.478 745.016 L 748.478 745.016 L 748.478 745.016 Q 748.478 746.888 749.366 748.424 L 749.366 748.424 L 749.366 748.424 Q 750.254 749.96 751.79 750.872 L 751.79 750.872 L 751.79 750.872 Q 753.326 751.784 755.294 751.784 L 755.294 751.784 L 755.294 751.784 Q 757.742 751.784 759.566 750.344 L 759.566 750.344 L 761.87 753.128 L 761.87 753.128 Z  M 769.55 726.392 L 774.062 726.392 L 774.062 735.176 L 779.486 735.176 L 779.486 738.728 L 774.062 738.728 L 774.062 755 L 769.55 755 L 769.55 738.728 L 765.902 738.728 L 765.902 735.176 L 769.55 735.176 L 769.55 726.392 L 769.55 726.392 Z  M 498.35 737.672 L 498.35 737.672 Q 498.35 732.92 500.75 728.84 L 500.75 728.84 L 500.75 728.84 Q 503.15 724.76 507.206 722.336 L 507.206 722.336 L 507.206 722.336 Q 511.262 719.912 516.062 719.912 L 516.062 719.912 L 516.062 719.912 Q 520.814 719.912 524.894 722.336 L 524.894 722.336 L 524.894 722.336 Q 528.974 724.76 531.398 728.84 L 531.398 728.84 L 531.398 728.84 Q 533.822 732.92 533.822 737.672 L 533.822 737.672 L 533.822 737.672 Q 533.822 742.472 531.422 746.552 L 531.422 746.552 L 531.422 746.552 Q 529.022 750.632 524.918 753.008 L 524.918 753.008 L 524.918 753.008 Q 520.814 755.384 516.062 755.384 L 516.062 755.384 L 516.062 755.384 Q 511.262 755.384 507.182 753.032 L 507.182 753.032 L 507.182 753.032 Q 503.102 750.68 500.726 746.624 L 500.726 746.624 L 500.726 746.624 Q 498.35 742.568 498.35 737.672 L 498.35 737.672 L 498.35 737.672 Z  M 503.15 737.72 L 503.15 737.72 Q 503.15 741.272 504.878 744.296 L 504.878 744.296 L 504.878 744.296 Q 506.606 747.32 509.606 749.096 L 509.606 749.096 L 509.606 749.096 Q 512.606 750.872 516.158 750.872 L 516.158 750.872 L 516.158 750.872 Q 519.71 750.872 522.662 749.12 L 522.662 749.12 L 522.662 749.12 Q 525.614 747.368 527.318 744.32 L 527.318 744.32 L 527.318 744.32 Q 529.022 741.272 529.022 737.672 L 529.022 737.672 L 529.022 737.672 Q 529.022 734.072 527.294 731 L 527.294 731 L 527.294 731 Q 525.566 727.928 522.59 726.152 L 522.59 726.152 L 522.59 726.152 Q 519.614 724.376 516.062 724.376 L 516.062 724.376 L 516.062 724.376 Q 512.51 724.376 509.534 726.176 L 509.534 726.176 L 509.534 726.176 Q 506.558 727.976 504.854 731.048 L 504.854 731.048 L 504.854 731.048 Q 503.15 734.12 503.15 737.72 L 503.15 737.72 L 503.15 737.72 Z  M 556.814 717.8 L 561.278 717.8 L 561.278 755 L 556.766 755 L 556.766 751.88 L 556.766 751.88 Q 555.326 753.56 553.238 754.52 L 553.238 754.52 L 553.238 754.52 Q 551.15 755.48 548.654 755.48 L 548.654 755.48 L 548.654 755.48 Q 545.87 755.48 543.614 754.136 L 543.614 754.136 L 543.614 754.136 Q 541.358 752.792 540.086 750.368 L 540.086 750.368 L 540.086 750.368 Q 538.814 747.944 538.814 744.776 L 538.814 744.776 L 538.814 744.776 Q 538.814 741.56 540.158 739.184 L 540.158 739.184 L 540.158 739.184 Q 541.502 736.808 543.854 735.56 L 543.854 735.56 L 543.854 735.56 Q 546.206 734.312 549.182 734.312 L 549.182 734.312 L 549.182 734.312 Q 551.438 734.312 553.526 735.248 L 553.526 735.248 L 553.526 735.248 Q 555.614 736.184 556.814 737.816 L 556.814 737.816 L 556.814 717.8 L 556.814 717.8 Z  M 550.046 751.64 L 550.046 751.64 Q 552.638 751.64 554.438 750.248 L 554.438 750.248 L 554.438 750.248 Q 556.238 748.856 556.766 746.504 L 556.766 746.504 L 556.766 742.76 L 556.766 742.76 Q 556.19 740.6 554.318 739.232 L 554.318 739.232 L 554.318 739.232 Q 552.446 737.864 550.046 737.864 L 550.046 737.864 L 550.046 737.864 Q 548.222 737.864 546.686 738.752 L 546.686 738.752 L 546.686 738.752 Q 545.15 739.64 544.238 741.2 L 544.238 741.2 L 544.238 741.2 Q 543.326 742.76 543.326 744.728 L 543.326 744.728 L 543.326 744.728 Q 543.326 746.648 544.238 748.232 L 544.238 748.232 L 544.238 748.232 Q 545.15 749.816 546.686 750.728 L 546.686 750.728 L 546.686 750.728 Q 548.222 751.64 550.046 751.64 L 550.046 751.64 L 550.046 751.64 Z  M 567.278 744.872 L 567.278 744.872 Q 567.278 741.944 568.694 739.52 L 568.694 739.52 L 568.694 739.52 Q 570.11 737.096 572.63 735.704 L 572.63 735.704 L 572.63 735.704 Q 575.15 734.312 578.318 734.312 L 578.318 734.312 L 578.318 734.312 Q 581.486 734.312 583.958 735.704 L 583.958 735.704 L 583.958 735.704 Q 586.43 737.096 587.798 739.496 L 587.798 739.496 L 587.798 739.496 Q 589.166 741.896 589.166 744.872 L 589.166 744.872 L 589.166 744.872 Q 589.166 747.848 587.798 750.272 L 587.798 750.272 L 587.798 750.272 Q 586.43 752.696 583.934 754.088 L 583.934 754.088 L 583.934 754.088 Q 581.438 755.48 578.222 755.48 L 578.222 755.48 L 578.222 755.48 Q 575.102 755.48 572.606 754.16 L 572.606 754.16 L 572.606 754.16 Q 570.11 752.84 568.694 750.44 L 568.694 750.44 L 568.694 750.44 Q 567.278 748.04 567.278 744.872 L 567.278 744.872 L 567.278 744.872 Z  M 571.79 744.92 L 571.79 744.92 Q 571.79 746.792 572.63 748.376 L 572.63 748.376 L 572.63 748.376 Q 573.47 749.96 574.934 750.872 L 574.934 750.872 L 574.934 750.872 Q 576.398 751.784 578.174 751.784 L 578.174 751.784 L 578.174 751.784 Q 580.958 751.784 582.782 749.816 L 582.782 749.816 L 582.782 749.816 Q 584.606 747.848 584.606 744.92 L 584.606 744.92 L 584.606 744.92 Q 584.606 741.992 582.782 740 L 582.782 740 L 582.782 740 Q 580.958 738.008 578.174 738.008 L 578.174 738.008 L 578.174 738.008 Q 576.35 738.008 574.91 738.944 L 574.91 738.944 L 574.91 738.944 Q 573.47 739.88 572.63 741.464 L 572.63 741.464 L 572.63 741.464 Q 571.79 743.048 571.79 744.92 L 571.79 744.92 L 571.79 744.92 Z  M 593.438 744.872 L 593.438 744.872 Q 593.438 741.944 594.854 739.52 L 594.854 739.52 L 594.854 739.52 Q 596.27 737.096 598.79 735.704 L 598.79 735.704 L 598.79 735.704 Q 601.31 734.312 604.478 734.312 L 604.478 734.312 L 604.478 734.312 Q 607.646 734.312 610.118 735.704 L 610.118 735.704 L 610.118 735.704 Q 612.59 737.096 613.958 739.496 L 613.958 739.496 L 613.958 739.496 Q 615.326 741.896 615.326 744.872 L 615.326 744.872 L 615.326 744.872 Q 615.326 747.848 613.958 750.272 L 613.958 750.272 L 613.958 750.272 Q 612.59 752.696 610.094 754.088 L 610.094 754.088 L 610.094 754.088 Q 607.598 755.48 604.382 755.48 L 604.382 755.48 L 604.382 755.48 Q 601.262 755.48 598.766 754.16 L 598.766 754.16 L 598.766 754.16 Q 596.27 752.84 594.854 750.44 L 594.854 750.44 L 594.854 750.44 Q 593.438 748.04 593.438 744.872 L 593.438 744.872 L 593.438 744.872 Z  M 597.95 744.92 L 597.95 744.92 Q 597.95 746.792 598.79 748.376 L 598.79 748.376 L 598.79 748.376 Q 599.63 749.96 601.094 750.872 L 601.094 750.872 L 601.094 750.872 Q 602.558 751.784 604.334 751.784 L 604.334 751.784 L 604.334 751.784 Q 607.118 751.784 608.942 749.816 L 608.942 749.816 L 608.942 749.816 Q 610.766 747.848 610.766 744.92 L 610.766 744.92 L 610.766 744.92 Q 610.766 741.992 608.942 740 L 608.942 740 L 608.942 740 Q 607.118 738.008 604.334 738.008 L 604.334 738.008 L 604.334 738.008 Q 602.51 738.008 601.07 738.944 L 601.07 738.944 L 601.07 738.944 Q 599.63 739.88 598.79 741.464 L 598.79 741.464 L 598.79 741.464 Q 597.95 743.048 597.95 744.92 L 597.95 744.92 L 597.95 744.92 Z  M 310.43 734.312 L 310.43 734.312 Q 313.214 734.312 315.47 735.656 L 315.47 735.656 L 315.47 735.656 Q 317.726 737 319.022 739.424 L 319.022 739.424 L 319.022 739.424 Q 320.318 741.848 320.318 745.016 L 320.318 745.016 L 320.318 745.016 Q 320.318 748.136 318.926 750.512 L 318.926 750.512 L 318.926 750.512 Q 317.534 752.888 315.086 754.184 L 315.086 754.184 L 315.086 754.184 Q 312.638 755.48 309.614 755.48 L 309.614 755.48 L 309.614 755.48 Q 307.454 755.48 305.486 754.544 L 305.486 754.544 L 305.486 754.544 Q 303.518 753.608 302.318 752.024 L 302.318 752.024 L 302.318 764.552 L 297.854 764.552 L 297.854 734.792 L 301.742 734.792 L 302.126 738.152 L 302.126 738.152 Q 303.662 736.424 305.798 735.368 L 305.798 735.368 L 305.798 735.368 Q 307.934 734.312 310.43 734.312 L 310.43 734.312 L 310.43 734.312 Z  M 308.75 751.88 L 308.75 751.88 Q 310.622 751.88 312.23 750.992 L 312.23 750.992 L 312.23 750.992 Q 313.838 750.104 314.798 748.544 L 314.798 748.544 L 314.798 748.544 Q 315.758 746.984 315.758 745.064 L 315.758 745.064 L 315.758 745.064 Q 315.758 743.096 314.87 741.512 L 314.87 741.512 L 314.87 741.512 Q 313.982 739.928 312.446 739.016 L 312.446 739.016 L 312.446 739.016 Q 310.91 738.104 309.038 738.104 L 309.038 738.104 L 309.038 738.104 Q 306.494 738.104 304.694 739.52 L 304.694 739.52 L 304.694 739.52 Q 302.894 740.936 302.318 743.336 L 302.318 743.336 L 302.318 746.648 L 302.318 746.648 Q 302.702 748.952 304.502 750.416 L 304.502 750.416 L 304.502 750.416 Q 306.302 751.88 308.75 751.88 L 308.75 751.88 L 308.75 751.88 Z  M 342.59 735.128 L 346.718 735.128 L 346.718 755 L 342.254 755 L 342.254 751.736 L 342.254 751.736 Q 341.198 753.128 339.182 754.304 L 339.182 754.304 L 339.182 754.304 Q 337.166 755.48 334.622 755.48 L 334.622 755.48 L 334.622 755.48 Q 331.79 755.48 329.51 754.256 L 329.51 754.256 L 329.51 754.256 Q 327.23 753.032 325.91 750.68 L 325.91 750.68 L 325.91 750.68 Q 324.59 748.328 324.59 745.064 L 324.59 745.064 L 324.59 745.064 Q 324.59 741.8 325.958 739.376 L 325.958 739.376 L 325.958 739.376 Q 327.326 736.952 329.654 735.632 L 329.654 735.632 L 329.654 735.632 Q 331.982 734.312 334.814 734.312 L 334.814 734.312 L 334.814 734.312 Q 337.358 734.312 339.23 735.416 L 339.23 735.416 L 339.23 735.416 Q 341.102 736.52 342.254 738.296 L 342.254 738.296 L 342.59 735.128 L 342.59 735.128 Z  M 335.822 751.784 L 335.822 751.784 Q 338.27 751.784 340.022 750.416 L 340.022 750.416 L 340.022 750.416 Q 341.774 749.048 342.254 746.696 L 342.254 746.696 L 342.254 742.76 L 342.254 742.76 Q 341.678 740.648 339.854 739.328 L 339.854 739.328 L 339.854 739.328 Q 338.03 738.008 335.678 738.008 L 335.678 738.008 L 335.678 738.008 Q 333.902 738.008 332.39 738.872 L 332.39 738.872 L 332.39 738.872 Q 330.878 739.736 329.99 741.296 L 329.99 741.296 L 329.99 741.296 Q 329.102 742.856 329.102 744.824 L 329.102 744.824 L 329.102 744.824 Q 329.102 746.744 330.014 748.328 L 330.014 748.328 L 330.014 748.328 Q 330.926 749.912 332.462 750.848 L 332.462 750.848 L 332.462 750.848 Q 333.998 751.784 335.822 751.784 L 335.822 751.784 L 335.822 751.784 Z  M 366.83 734.36 L 366.83 734.36 Q 369.614 734.36 371.438 736.016 L 371.438 736.016 L 371.438 736.016 Q 373.262 737.672 373.31 740.312 L 373.31 740.312 L 373.31 755 L 368.798 755 L 368.798 741.848 L 368.798 741.848 Q 368.702 740.168 367.79 739.208 L 367.79 739.208 L 367.79 739.208 Q 366.878 738.248 365.054 738.2 L 365.054 738.2 L 365.054 738.2 Q 362.414 738.2 360.686 740.312 L 360.686 740.312 L 360.686 740.312 Q 358.958 742.424 358.958 745.688 L 358.958 745.688 L 358.958 755 L 354.494 755 L 354.494 735.128 L 358.526 735.128 L 358.814 738.968 L 358.814 738.968 Q 359.87 736.808 361.982 735.584 L 361.982 735.584 L 361.982 735.584 Q 364.094 734.36 366.83 734.36 L 366.83 734.36 L 366.83 734.36 Z  M 397.31 735.128 L 401.438 735.128 L 401.438 755 L 396.974 755 L 396.974 751.736 L 396.974 751.736 Q 395.918 753.128 393.902 754.304 L 393.902 754.304 L 393.902 754.304 Q 391.886 755.48 389.342 755.48 L 389.342 755.48 L 389.342 755.48 Q 386.51 755.48 384.23 754.256 L 384.23 754.256 L 384.23 754.256 Q 381.95 753.032 380.63 750.68 L 380.63 750.68 L 380.63 750.68 Q 379.31 748.328 379.31 745.064 L 379.31 745.064 L 379.31 745.064 Q 379.31 741.8 380.678 739.376 L 380.678 739.376 L 380.678 739.376 Q 382.046 736.952 384.374 735.632 L 384.374 735.632 L 384.374 735.632 Q 386.702 734.312 389.534 734.312 L 389.534 734.312 L 389.534 734.312 Q 392.078 734.312 393.95 735.416 L 393.95 735.416 L 393.95 735.416 Q 395.822 736.52 396.974 738.296 L 396.974 738.296 L 397.31 735.128 L 397.31 735.128 Z  M 390.542 751.784 L 390.542 751.784 Q 392.99 751.784 394.742 750.416 L 394.742 750.416 L 394.742 750.416 Q 396.494 749.048 396.974 746.696 L 396.974 746.696 L 396.974 742.76 L 396.974 742.76 Q 396.398 740.648 394.574 739.328 L 394.574 739.328 L 394.574 739.328 Q 392.75 738.008 390.398 738.008 L 390.398 738.008 L 390.398 738.008 Q 388.622 738.008 387.11 738.872 L 387.11 738.872 L 387.11 738.872 Q 385.598 739.736 384.71 741.296 L 384.71 741.296 L 384.71 741.296 Q 383.822 742.856 383.822 744.824 L 383.822 744.824 L 383.822 744.824 Q 383.822 746.744 384.734 748.328 L 384.734 748.328 L 384.734 748.328 Q 385.646 749.912 387.182 750.848 L 387.182 750.848 L 387.182 750.848 Q 388.718 751.784 390.542 751.784 L 390.542 751.784 L 390.542 751.784 Z  M 425.342 753.128 L 425.342 753.128 Q 423.998 754.232 422.15 754.856 L 422.15 754.856 L 422.15 754.856 Q 420.302 755.48 418.382 755.48 L 418.382 755.48 L 418.382 755.48 Q 415.166 755.48 412.694 754.184 L 412.694 754.184 L 412.694 754.184 Q 410.222 752.888 408.854 750.512 L 408.854 750.512 L 408.854 750.512 Q 407.486 748.136 407.486 745.016 L 407.486 745.016 L 407.486 745.016 Q 407.486 741.944 408.926 739.568 L 408.926 739.568 L 408.926 739.568 Q 410.366 737.192 412.766 735.896 L 412.766 735.896 L 412.766 735.896 Q 415.166 734.6 417.95 734.6 L 417.95 734.6 L 417.95 734.6 Q 422.51 734.6 425.486 737.096 L 425.486 737.096 L 423.23 740.024 L 423.23 740.024 Q 422.27 739.304 421.022 738.8 L 421.022 738.8 L 421.022 738.8 Q 419.774 738.296 418.334 738.296 L 418.334 738.296 L 418.334 738.296 Q 416.558 738.296 415.094 739.184 L 415.094 739.184 L 415.094 739.184 Q 413.63 740.072 412.79 741.608 L 412.79 741.608 L 412.79 741.608 Q 411.95 743.144 411.95 745.016 L 411.95 745.016 L 411.95 745.016 Q 411.95 746.888 412.838 748.424 L 412.838 748.424 L 412.838 748.424 Q 413.726 749.96 415.262 750.872 L 415.262 750.872 L 415.262 750.872 Q 416.798 751.784 418.766 751.784 L 418.766 751.784 L 418.766 751.784 Q 421.214 751.784 423.038 750.344 L 423.038 750.344 L 425.342 753.128 L 425.342 753.128 Z  M 440.414 751.64 L 440.414 751.64 Q 442.91 751.64 445.262 749.912 L 445.262 749.912 L 447.326 753.224 L 447.326 753.224 Q 445.742 754.28 443.894 754.88 L 443.894 754.88 L 443.894 754.88 Q 442.046 755.48 440.318 755.48 L 440.318 755.48 L 440.318 755.48 Q 437.006 755.48 434.534 754.112 L 434.534 754.112 L 434.534 754.112 Q 432.062 752.744 430.718 750.344 L 430.718 750.344 L 430.718 750.344 Q 429.374 747.944 429.374 744.92 L 429.374 744.92 L 429.374 744.92 Q 429.374 741.992 430.838 739.568 L 430.838 739.568 L 430.838 739.568 Q 432.302 737.144 434.846 735.728 L 434.846 735.728 L 434.846 735.728 Q 437.39 734.312 440.414 734.312 L 440.414 734.312 L 440.414 734.312 Q 444.302 734.312 446.918 736.592 L 446.918 736.592 L 446.918 736.592 Q 449.534 738.872 450.494 742.952 L 450.494 742.952 L 434.75 748.472 L 434.75 748.472 Q 435.614 749.96 437.078 750.8 L 437.078 750.8 L 437.078 750.8 Q 438.542 751.64 440.414 751.64 L 440.414 751.64 L 440.414 751.64 Z  M 440.078 737.864 L 440.078 737.864 Q 437.342 737.864 435.566 739.784 L 435.566 739.784 L 435.566 739.784 Q 433.79 741.704 433.79 744.68 L 433.79 744.68 L 433.79 744.68 Q 433.79 745.4 433.838 745.784 L 433.838 745.784 L 445.406 741.512 L 445.406 741.512 Q 444.686 739.88 443.366 738.872 L 443.366 738.872 L 443.366 738.872 Q 442.046 737.864 440.078 737.864 L 440.078 737.864 L 440.078 737.864 Z  M 472.334 735.128 L 476.462 735.128 L 476.462 755 L 471.998 755 L 471.998 751.736 L 471.998 751.736 Q 470.942 753.128 468.926 754.304 L 468.926 754.304 L 468.926 754.304 Q 466.91 755.48 464.366 755.48 L 464.366 755.48 L 464.366 755.48 Q 461.534 755.48 459.254 754.256 L 459.254 754.256 L 459.254 754.256 Q 456.974 753.032 455.654 750.68 L 455.654 750.68 L 455.654 750.68 Q 454.334 748.328 454.334 745.064 L 454.334 745.064 L 454.334 745.064 Q 454.334 741.8 455.702 739.376 L 455.702 739.376 L 455.702 739.376 Q 457.07 736.952 459.398 735.632 L 459.398 735.632 L 459.398 735.632 Q 461.726 734.312 464.558 734.312 L 464.558 734.312 L 464.558 734.312 Q 467.102 734.312 468.974 735.416 L 468.974 735.416 L 468.974 735.416 Q 470.846 736.52 471.998 738.296 L 471.998 738.296 L 472.334 735.128 L 472.334 735.128 Z  M 465.566 751.784 L 465.566 751.784 Q 468.014 751.784 469.766 750.416 L 469.766 750.416 L 469.766 750.416 Q 471.518 749.048 471.998 746.696 L 471.998 746.696 L 471.998 742.76 L 471.998 742.76 Q 471.422 740.648 469.598 739.328 L 469.598 739.328 L 469.598 739.328 Q 467.774 738.008 465.422 738.008 L 465.422 738.008 L 465.422 738.008 Q 463.646 738.008 462.134 738.872 L 462.134 738.872 L 462.134 738.872 Q 460.622 739.736 459.734 741.296 L 459.734 741.296 L 459.734 741.296 Q 458.846 742.856 458.846 744.824 L 458.846 744.824 L 458.846 744.824 Q 458.846 746.744 459.758 748.328 L 459.758 748.328 L 459.758 748.328 Q 460.67 749.912 462.206 750.848 L 462.206 750.848 L 462.206 750.848 Q 463.742 751.784 465.566 751.784 L 465.566 751.784 L 465.566 751.784 Z  M 271.934 755 L 268.334 745.88 L 254.99 745.88 L 251.294 755 L 246.686 755 L 261.854 718.856 L 262.142 718.856 L 277.31 755 L 271.934 755 L 271.934 755 Z  M 256.67 741.848 L 266.75 741.848 L 261.806 729.176 L 256.67 741.848 L 256.67 741.848 Z " fill="rgb(73,67,104)"/></g></svg>
